<svg xmlns="http://www.w3.org/2000/svg" version="1.1" xmlns:xlink="http://www.w3.org/1999/xlink" xmlns:svgjs="http://svgjs.dev/svgjs" width="1500" height="1500" viewBox="0 0 1500 1500"><rect width="1500" height="1500" fill="#1f0f53"></rect><g transform="matrix(0.6666666666666666,0,0,0.6666666666666666,250.1612346464422,174)"><svg viewBox="0 0 243 280" data-background-color="#1f0f53" preserveAspectRatio="xMidYMid meet" height="1728" width="1500" xmlns="http://www.w3.org/2000/svg" xmlns:xlink="http://www.w3.org/1999/xlink"><g id="tight-bounds" transform="matrix(1,0,0,1,-0.03918001908544966,0)"><svg viewBox="0 0 243.07836003817093 280" height="280" width="243.07836003817093"><g><svg viewBox="0 0 278.2696 320.53650513260345" height="280" width="243.07836003817093"><g><svg viewBox="0 0 278.2696 320.53650513260345" height="320.53650513260345" width="278.2696"><g id="textblocktransform"><svg viewBox="0 0 278.2696 320.53650513260345" height="320.53650513260345" width="278.2696" id="textblock"><g><svg viewBox="0 0 278.2696 278.2696" height="278.2696" width="278.2696"><g transform="matrix(1,0,0,1,89.94321971048298,89.94321971048298)"><svg viewBox="0 0 98.38316057903407 98.38316057903407" height="98.38316057903407" width="98.38316057903407"><g id="icon-0"><svg xmlns="http://www.w3.org/2000/svg" xmlns:xlink="http://www.w3.org/1999/xlink" version="1.1" x="0" y="0" viewBox="0 0 100 100" enable-background="new 0 0 100 100" xml:space="preserve" height="98.38316057903407" width="98.38316057903407" class="icon-jxe-0" data-fill-palette-color="accent" id="jxe-0"><g fill="#ff5db2" data-fill-palette-color="accent"></g><g fill="#ff5db2" data-fill-palette-color="accent"><g fill="#ff5db2" data-fill-palette-color="accent"><path d="M61.569 54.678A14 14 0 0 0 61.705 52.755C61.697 48.946 60.171 46.43 59.699 45.738L59.695 45.728 59.647 45.662 59.565 45.549 59.564 45.55 59.434 45.373A0.46 0.46 0 0 0 58.794 45.273L57.194 46.439A0.46 0.46 0 0 0 57.093 47.079L57.353 47.435 57.366 47.447C57.715 47.985 58.819 49.926 58.815 52.756A12 12 0 0 1 58.331 56.061 15 15 0 0 1 61.569 54.678M60.03 87.833C60.03 88.085 60.235 88.291 60.488 88.291H62.549A0.46 0.46 0 0 0 63.008 87.833V72.157H60.03zM66.657 30.622C69.364 30.622 70.49 29.527 70.853 25.528H62.406C62.732 29.527 63.795 30.622 66.657 30.622M66.502 47.554C66.502 48.198 66.8 48.464 67.386 48.464H67.407C67.993 48.464 68.291 48.199 68.291 47.554V47.524C68.291 46.882 67.993 46.614 67.407 46.614H67.386C66.8 46.614 66.502 46.881 66.502 47.524zM77.039 36.968V25.745H77.013C77.024 25.461 77.038 25.178 77.038 24.883V24.578C77.043 21.159 76.243 18.436 74.39 16.584 72.531 14.736 69.876 14.016 66.746 14.019H66.537C63.406 14.016 60.75 14.737 58.892 16.584 57.038 18.436 56.24 21.159 56.243 24.578V24.883A18 18 0 0 0 56.383 27.198V36.91C53.847 37.114 51.293 38.035 51.293 42.6V57.959A0.46 0.46 0 0 0 51.752 58.417H53.814A0.46 0.46 0 0 0 54.271 57.959V43.127C54.271 40.853 54.659 39.857 56.463 39.589 56.638 41.003 57.122 42.223 58.039 43.139 59.164 44.254 60.706 44.686 62.395 44.731 62.41 44.732 62.424 44.74 62.44 44.74H62.882A0.46 0.46 0 0 0 63.34 44.281V42.301A0.46 0.46 0 0 0 62.882 41.843H62.492C61.215 41.807 60.489 41.504 60.077 41.089 59.766 40.783 59.499 40.282 59.365 39.462L59.386 39.461H62.805A0.46 0.46 0 0 0 63.263 39.003V37.283A0.46 0.46 0 0 0 62.805 36.825H59.273V33.215C61.107 34.806 63.611 35.444 66.538 35.441H66.768C69.759 35.441 72.308 34.771 74.15 33.094V38.256C74.147 39.84 73.788 40.655 73.346 41.088 72.934 41.503 72.21 41.806 70.932 41.842H70.628C70.616 41.842 70.605 41.848 70.593 41.849H70.588V41.85A0.455 0.455 0 0 0 70.17 42.3V44.28C70.17 44.519 70.356 44.709 70.588 44.73V44.74L70.674 44.739H71.069C71.09 44.739 71.108 44.73 71.129 44.727A8.4 8.4 0 0 0 72.919 44.48V44.491H72.997C73.897 44.495 74.281 44.693 74.454 44.871 74.633 45.044 74.858 45.452 74.861 46.455V46.569C74.858 47.577 74.632 47.983 74.455 48.155 74.283 48.33 73.899 48.529 72.997 48.533H72.277A0.46 0.46 0 0 0 71.819 48.991C71.55 49.99 71.344 51.418 71.344 52.755 71.344 53.802 71.469 54.944 71.757 56.156A17.6 17.6 0 0 0 66.852 55.434L66.808 55.435H66.516L66.472 55.434C63.589 55.434 59.186 56.249 55.977 59.275 55.802 59.439 55.766 59.734 55.956 59.999L57.065 61.205V70.213C57.065 70.465 57.27 70.671 57.524 70.671H70.316V87.835C70.316 88.087 70.521 88.293 70.774 88.293H72.835A0.46 0.46 0 0 0 73.294 87.835V70.67H75.231A0.46 0.46 0 0 0 75.689 70.212V61.406A0.39 0.39 0 0 0 76.106 61.371L77.368 59.999C77.557 59.734 77.521 59.439 77.346 59.275A12.5 12.5 0 0 0 75.312 57.725C74.509 55.842 74.234 54.179 74.231 52.755 74.231 52.237 74.269 51.751 74.331 51.297 75.136 51.136 75.885 50.803 76.492 50.202 77.422 49.272 77.753 47.975 77.75 46.569V46.455C77.753 45.05 77.421 43.754 76.494 42.824A3.7 3.7 0 0 0 75.975 42.403C76.492 41.634 76.805 40.726 76.945 39.707 78.281 40.095 78.589 41.106 78.589 43.127V57.959C78.589 58.211 78.795 58.417 79.046 58.417H81.108A0.46 0.46 0 0 0 81.566 57.959V42.6C81.568 38.371 79.378 37.269 77.039 36.968M66.537 16.909H66.746C69.483 16.913 71.251 17.531 72.35 18.631 72.71 18.988 73.02 19.433 73.282 19.962H70.733C68.385 19.964 66.843 19.515 65.891 18.841 65.264 18.392 64.811 17.83 64.487 17.056A14 14 0 0 1 66.537 16.909M74.149 24.883C74.146 27.911 73.453 29.744 72.351 30.837 71.253 31.934 69.485 32.549 66.746 32.552H66.537C63.798 32.549 62.029 31.934 60.932 30.837 59.829 29.745 59.137 27.912 59.133 24.883V24.578C59.137 21.56 59.829 19.726 60.932 18.63A4.7 4.7 0 0 1 61.696 18.025C62.213 19.324 63.029 20.45 64.193 21.259 65.863 22.423 68.038 22.915 70.733 22.916H74.059C74.113 23.429 74.148 23.974 74.149 24.578zM72.713 59.593V67.692H60.044V59.631C62.619 58.301 65.435 58.246 66.474 58.246H66.854C67.819 58.246 70.337 58.362 72.748 59.423A0.5 0.5 0 0 0 72.713 59.593M70.573 39.877C71.445 39.877 71.888 39.482 71.888 38.523V38.477C71.888 37.521 71.445 37.123 70.573 37.123H70.542C69.669 37.123 69.227 37.521 69.227 38.477V38.523C69.227 39.482 69.669 39.877 70.542 39.877zM31.943 53.693A0.98 0.98 0 0 0 33.303 53.685C33.305 53.682 33.656 53.344 34.014 52.981 34.194 52.798 34.375 52.611 34.524 52.446A4 4 0 0 0 34.732 52.198C34.766 52.153 34.8 52.108 34.843 52.033 34.877 51.942 34.967 51.894 34.993 51.498L34.99 51.421 34.408 43.984C34.379 43.477 34.056 43.102 33.754 42.91L33.271 42.474A0.99 0.99 0 0 0 31.959 42.467L31.429 42.935C31.175 43.111 30.852 43.411 30.802 43.984H30.8L30.217 51.421 30.215 51.498C30.241 51.904 30.335 51.95 30.37 52.042 30.523 52.28 30.625 52.371 30.785 52.549 31.236 53.027 31.936 53.685 31.943 53.693M32.43 30.556C35.293 30.556 36.355 29.461 36.682 25.462H28.235C28.597 29.461 29.723 30.556 32.43 30.556M32.342 35.376H32.571C35.69 35.376 38.338 34.66 40.193 32.819 42.048 30.967 42.846 28.244 42.843 24.817V24.512C42.846 21.092 42.048 18.37 40.194 16.518 39.202 15.531 37.976 14.874 36.578 14.469 37.404 13.711 38.111 12.729 38.708 11.447 38.804 11.188 38.821 10.93 38.573 10.769L37.057 9.965C36.822 9.823 36.424 9.766 36.253 10.077 35.591 11.357 34.866 12.267 33.929 12.909 33.2 13.411 32.313 13.759 31.174 13.987 28.55 14.15 26.32 14.903 24.696 16.517 22.843 18.369 22.044 21.092 22.048 24.511V24.816C22.044 28.243 22.842 30.966 24.697 32.818 26.557 34.664 29.212 35.378 32.342 35.376M24.937 24.512C24.94 21.494 25.632 19.659 26.736 18.564 27.835 17.464 29.604 16.847 32.341 16.842H32.548C35.285 16.846 37.054 17.464 38.153 18.564 39.256 19.66 39.948 21.494 39.952 24.512V24.817C39.948 27.845 39.256 29.678 38.154 30.771 37.056 31.868 35.286 32.483 32.548 32.486H32.341C29.602 32.483 27.833 31.867 26.734 30.771 25.632 29.679 24.94 27.846 24.936 24.817V24.512zM67.385 43.717H67.406C67.992 43.717 68.29 43.451 68.29 42.807V42.777C68.29 42.134 67.992 41.867 67.406 41.867H67.385C66.799 41.867 66.501 42.134 66.501 42.777V42.807C66.502 43.452 66.799 43.717 67.385 43.717M25.691 44.884H23.629A0.46 0.46 0 0 0 23.171 45.342V58.181A16 16 0 0 1 26.149 56.803V45.342A0.46 0.46 0 0 0 25.691 44.884M41.789 60.027V45.682A0.46 0.46 0 0 0 41.331 45.223H39.27A0.46 0.46 0 0 0 38.812 45.682V58.431A17.4 17.4 0 0 0 32.614 57.263L32.57 57.264H32.278L32.234 57.263C29.352 57.263 24.948 58.078 21.74 61.104 21.566 61.268 21.529 61.563 21.718 61.828L22.98 63.2A0.4 0.4 0 0 0 23.165 63.278V87.832C23.165 88.084 23.37 88.29 23.623 88.29H25.684A0.46 0.46 0 0 0 26.143 87.832V61.342C28.613 60.198 31.243 60.077 32.234 60.077H32.614C33.621 60.077 36.302 60.124 38.812 61.34V87.75A0.46 0.46 0 0 0 39.27 88.208H41.332A0.46 0.46 0 0 0 41.79 87.75V63.237C41.816 63.225 41.844 63.221 41.868 63.202L43.13 61.83C43.32 61.565 43.284 61.27 43.109 61.106A12 12 0 0 0 41.789 60.027M66.502 52.301C66.502 52.945 66.8 53.211 67.386 53.211H67.407C67.993 53.211 68.291 52.945 68.291 52.301V52.271C68.291 51.629 67.993 51.361 67.407 51.361H67.386C66.8 51.361 66.502 51.628 66.502 52.271zM41.357 36.784A34 34 0 0 0 40.744 36.766L40.747 36.76H36.283A0.46 0.46 0 0 0 35.825 37.218V39.722C35.045 39.032 34.297 38.357 33.84 37.838 33.633 37.603 33.476 37.456 33.267 37.456H32.045C31.836 37.456 31.679 37.603 31.472 37.838 31.013 38.358 30.263 39.034 29.482 39.726V38.97C29.483 38.959 29.488 38.95 29.488 38.939V37.219A0.46 0.46 0 0 0 29.03 36.761H24.566L24.569 36.767C24.354 36.772 24.145 36.777 23.956 36.785 21.07 36.831 17.519 37.152 17.519 42.535V57.894A0.46 0.46 0 0 0 17.977 58.352H20.039A0.46 0.46 0 0 0 20.496 57.894V43.061C20.496 40.335 21.047 39.442 23.933 39.442 24.16 39.442 25.006 39.408 25.611 39.396H26.846V42.259C26.846 42.273 26.853 42.284 26.854 42.297A0.4 0.4 0 0 0 26.977 42.583L28.201 43.799C28.363 43.964 28.588 43.908 28.74 43.762 29.552 42.985 32.004 41.043 32.656 40.16 33.308 41.044 35.759 42.986 36.572 43.762 36.723 43.908 36.949 43.964 37.111 43.799L38.335 42.583A0.4 0.4 0 0 0 38.456 42.285C38.457 42.276 38.461 42.268 38.461 42.259V39.396H39.703C40.308 39.408 41.153 39.442 41.381 39.442 44.268 39.442 44.818 40.335 44.818 43.061V57.893C44.818 58.145 45.024 58.351 45.275 58.351H47.337A0.46 0.46 0 0 0 47.796 57.893V42.534C47.794 37.151 44.243 36.83 41.357 36.784" fill="#ff5db2" data-fill-palette-color="accent"></path></g></g></svg></g></svg></g><g id="text-0"><path d="M8.868 92.938v0l-0.051 0.144c0.902 0.734 1.979 1.604 3.23 2.61 1.25 1.007 2.538 2.041 3.862 3.103 1.324 1.061 2.555 2.054 3.69 2.977v0l0.488 0.387c0.395 0.304 0.885 0.681 1.471 1.131 0.584 0.457 1.196 0.937 1.835 1.443 0.635 0.496 1.229 0.967 1.781 1.412 0.546 0.443 0.995 0.795 1.348 1.055v0c0.009 0.197 0.001 0.394-0.026 0.593-0.027 0.198-0.088 0.431-0.182 0.699v0c-0.139 0.395-0.368 0.709-0.686 0.941-0.318 0.232-0.71 0.266-1.175 0.102v0c-0.223-0.079-0.437-0.193-0.642-0.345-0.209-0.16-0.43-0.334-0.664-0.524v0c-0.736-0.596-1.628-1.319-2.676-2.168-1.052-0.858-2.201-1.797-3.447-2.817-1.248-1.013-2.521-2.067-3.819-3.162-1.298-1.095-2.566-2.165-3.802-3.211-1.237-1.045-2.363-2.008-3.379-2.889v0c-0.026-0.231-0.021-0.559 0.014-0.984 0.044-0.429 0.14-0.854 0.288-1.274v0c0.173-0.491 0.413-0.937 0.718-1.338 0.308-0.407 0.656-0.611 1.043-0.611v0c1.635-0.083 3.473-0.145 5.515-0.184 2.048-0.038 4.169-0.057 6.363-0.058 2.2 0.001 4.332 0.011 6.396 0.029 2.062 0.025 3.932 0.056 5.609 0.096v0c0.156 0.248 0.255 0.538 0.297 0.867 0.035 0.328-0.008 0.664-0.13 1.008v0c-0.166 0.472-0.397 0.792-0.693 0.96-0.298 0.174-0.723 0.261-1.274 0.26v0l-6.719-0.089-1.137-0.068c-1.677-0.039-3.371-0.063-5.081-0.07-1.71-0.008-3.295-0.015-4.755-0.021-1.466-0.008-2.67-0.009-3.61-0.004zM25.005 92.198l-4.171 11.837-2.13-1.826 3.626-10.288z" fill="#ffdb99" data-fill-palette-color="primary"></path><path d="M23.659 75.698v0l5.401 2.992-1.517 2.74-5.197-2.878c-0.526-0.291-0.889-0.62-1.089-0.986-0.199-0.365-0.321-0.858-0.364-1.476v0c-0.057-0.804 0.055-1.801 0.335-2.99 0.283-1.18 0.771-2.397 1.465-3.65v0c1.012-1.827 1.973-2.488 2.884-1.984v0c0.231 0.128 0.424 0.281 0.58 0.46 0.159 0.173 0.276 0.353 0.349 0.541v0c-0.175 0.204-0.388 0.477-0.638 0.817-0.241 0.338-0.463 0.69-0.666 1.057v0c-0.583 1.052-0.989 2.037-1.219 2.952-0.223 0.919-0.331 1.721-0.324 2.405zM33.937 84.972l-7.964-4.411 1.926-2.515 8.549 4.735c-0.018 0.144-0.06 0.345-0.125 0.603-0.074 0.26-0.187 0.526-0.338 0.798v0c-0.265 0.479-0.561 0.79-0.888 0.934-0.336 0.146-0.723 0.098-1.16-0.144z" fill="#ffdb99" data-fill-palette-color="primary"></path><path d="M46.925 53.032v0 0c1.513 1.203 2.604 2.535 3.272 3.998 0.668 1.463 0.891 2.957 0.671 4.483-0.215 1.53-0.881 2.999-1.999 4.407v0c-1.119 1.407-2.401 2.391-3.848 2.951-1.445 0.569-2.956 0.694-4.532 0.374-1.576-0.32-3.12-1.081-4.633-2.284v0c-1.529-1.215-2.618-2.555-3.267-4.02-0.649-1.465-0.864-2.965-0.645-4.501 0.223-1.541 0.885-3.004 1.987-4.391v0c1.106-1.392 2.378-2.362 3.816-2.911 1.442-0.555 2.95-0.681 4.524-0.38 1.574 0.301 3.125 1.059 4.654 2.274zM35.955 55.658v0 0c-1.085 1.365-1.463 2.835-1.133 4.408 0.325 1.579 1.334 3.041 3.027 4.387v0c1.714 1.362 3.364 2.03 4.948 2.003 1.585-0.018 2.937-0.73 4.056-2.138v0c1.106-1.392 1.483-2.866 1.131-4.423-0.346-1.553-1.366-3.002-3.058-4.347v0c-1.693-1.346-3.335-2.012-4.926-1.998-1.591 0.014-2.939 0.716-4.045 2.108z" fill="#ffdb99" data-fill-palette-color="primary"></path><path d="M63.781 49.362v0 0c-1.145 0.99-2.393 1.68-3.745 2.071-1.351 0.391-2.756 0.341-4.215-0.148-1.459-0.499-2.904-1.577-4.336-3.233v0c-1.295-1.498-2.089-3-2.383-4.507-0.283-1.506-0.135-2.961 0.447-4.366 0.581-1.395 1.533-2.665 2.857-3.811v0c0.905-0.782 1.836-1.39 2.792-1.824 0.956-0.424 1.833-0.691 2.632-0.8v0c0.469-0.057 0.904-0.045 1.305 0.037 0.396 0.086 0.749 0.308 1.058 0.666v0l7.897 9.135-2.362 2.042-7.87-9.104c-0.528 0.072-1.115 0.24-1.762 0.505-0.642 0.27-1.309 0.703-1.999 1.299v0c-1.324 1.145-2.041 2.47-2.151 3.977-0.109 1.506 0.525 3.057 1.905 4.652v0c1.534 1.774 3.035 2.683 4.502 2.728 1.463 0.039 2.796-0.46 3.998-1.5v0c0.869-0.751 1.444-1.503 1.723-2.253 0.275-0.756 0.417-1.45 0.425-2.083v0l1.931 2.002c-0.017 0.569-0.233 1.265-0.647 2.088-0.409 0.818-1.077 1.628-2.002 2.427zM67.982 47.231v0l-2.685-3.106 2.362-2.042 2.811 3.252c1.127 1.304 1.752 2.59 1.876 3.859 0.118 1.274-0.156 2.511-0.823 3.714-0.672 1.197-1.618 2.324-2.841 3.38v0c-0.987 0.853-1.928 1.479-2.824 1.879-0.901 0.395-1.539 0.633-1.914 0.716v0c-0.88 0.18-1.544 0.012-1.99-0.504v0c-0.239-0.276-0.374-0.561-0.405-0.856-0.031-0.304 0.009-0.589 0.119-0.853v0c0.688-0.041 1.528-0.258 2.52-0.651 0.987-0.388 1.914-0.958 2.784-1.71v0c1.319-1.14 2.081-2.3 2.287-3.478 0.205-1.178-0.22-2.378-1.277-3.6z" fill="#ffdb99" data-fill-palette-color="primary"></path><path d="M76.999 35.817v0 0c-0.805-0.503-1.832-1.214-3.079-2.133-1.254-0.915-2.606-1.969-4.058-3.16-1.461-1.194-2.905-2.432-4.332-3.715v0c0.03-0.314 0.135-0.612 0.314-0.896 0.18-0.283 0.419-0.511 0.718-0.683v0c0.381-0.22 0.754-0.302 1.121-0.248 0.364 0.063 0.762 0.286 1.193 0.669v0c1.773 1.505 3.572 2.98 5.397 4.424 1.824 1.445 3.766 2.911 5.826 4.399v0l0.14-0.081c-0.073-1.222-0.259-2.695-0.559-4.418-0.305-1.72-0.677-3.507-1.114-5.361-0.434-1.848-0.898-3.566-1.393-5.154v0c0.121-0.156 0.261-0.318 0.421-0.488 0.163-0.164 0.355-0.31 0.578-0.439v0c0.386-0.223 0.757-0.312 1.11-0.266 0.363 0.048 0.656 0.265 0.879 0.652v0c0.206 0.357 0.451 1.019 0.736 1.986 0.285 0.967 0.577 2.109 0.877 3.427 0.29 1.315 0.566 2.732 0.826 4.252 0.264 1.526 0.477 3.045 0.639 4.558 0.163 1.513 0.255 2.911 0.278 4.194v0c0.066 2.521-0.034 4.541-0.298 6.058-0.266 1.527-0.759 2.498-1.479 2.914v0c-0.521 0.301-1.001 0.394-1.441 0.281-0.436-0.107-0.794-0.322-1.074-0.645v0c0.251-0.714 0.483-1.605 0.694-2.671 0.209-1.072 0.365-2.188 0.468-3.348 0.101-1.151 0.117-2.205 0.048-3.164v0c-0.451 0.112-0.924 0.116-1.421 0.012-0.497-0.104-1.168-0.422-2.015-0.956z" fill="#ffdb99" data-fill-palette-color="primary"></path><path d="M99.206 27.518v0 0c1.026-0.382 1.837-0.799 2.433-1.252 0.594-0.459 1-0.841 1.218-1.145v0l-1.977-5.311-4.365 2.165c-1.238 0.569-2.073 1.201-2.507 1.897-0.442 0.691-0.5 1.477-0.172 2.357v0c0.335 0.899 0.959 1.471 1.872 1.715 0.913 0.244 2.079 0.102 3.498-0.426zM93.399 12.037v0 0c2.122-0.79 3.985-0.939 5.589-0.447 1.601 0.486 2.784 1.754 3.548 3.806v0l3.233 8.684c0.2 0.538 0.248 0.986 0.142 1.342-0.105 0.357-0.321 0.736-0.647 1.139v0c-0.465 0.534-1.134 1.118-2.008 1.754-0.883 0.631-1.932 1.174-3.148 1.626v0c-2.299 0.856-4.248 1.066-5.846 0.629-1.589-0.433-2.702-1.504-3.338-3.214v0c-0.592-1.59-0.513-3.004 0.238-4.242 0.744-1.236 2.025-2.29 3.843-3.162v0l5.015-2.451-0.382-1.026c-0.455-1.222-1.155-1.979-2.099-2.269-0.936-0.286-2.028-0.197-3.276 0.267v0c-1.001 0.373-1.906 0.875-2.716 1.509-0.81 0.633-1.498 1.264-2.064 1.894v0c-0.26-0.098-0.513-0.235-0.759-0.41-0.243-0.169-0.411-0.377-0.503-0.624v0c-0.236-0.633-0.063-1.253 0.52-1.86v0c0.531-0.587 1.197-1.134 1.996-1.641 0.793-0.504 1.68-0.939 2.662-1.304z" fill="#ffdb99" data-fill-palette-color="primary"></path><path d="M120.157 22.102v0 0c1.724-0.304 2.959-0.926 3.706-1.867 0.748-0.935 1.014-2.018 0.797-3.249v0c-0.186-1.058-0.683-1.873-1.491-2.445-0.801-0.573-1.97-0.936-3.507-1.091v0l-3.52-0.41c-1.137-0.143-2.151-0.407-3.043-0.792-0.885-0.386-1.609-0.935-2.173-1.645-0.556-0.705-0.927-1.583-1.113-2.635v0c-0.348-1.977 0.098-3.651 1.339-5.023 1.234-1.37 3.046-2.266 5.436-2.686v0c1.384-0.244 2.648-0.315 3.792-0.215 1.144 0.107 2.073 0.335 2.786 0.683 0.708 0.356 1.107 0.79 1.197 1.302v0c0.059 0.333 0.021 0.648-0.111 0.946-0.132 0.305-0.324 0.558-0.577 0.761v0c-0.736-0.399-1.684-0.695-2.843-0.889-1.153-0.195-2.372-0.179-3.656 0.047v0c-1.491 0.263-2.614 0.8-3.371 1.612-0.757 0.806-1.036 1.775-0.837 2.906v0c0.158 0.899 0.599 1.572 1.324 2.022 0.732 0.454 1.84 0.764 3.324 0.928v0l2.467 0.275c2.13 0.208 3.872 0.749 5.227 1.622 1.361 0.872 2.21 2.26 2.545 4.164v0c0.356 2.023-0.094 3.794-1.35 5.313-1.256 1.518-3.219 2.512-5.888 2.982v0c-1.564 0.275-2.963 0.343-4.195 0.203-1.226-0.141-2.211-0.417-2.956-0.828-0.752-0.41-1.172-0.871-1.262-1.383v0c-0.077-0.439-0.005-0.829 0.215-1.17 0.213-0.346 0.489-0.615 0.826-0.805v0c0.692 0.461 1.626 0.873 2.802 1.236 1.176 0.363 2.545 0.406 4.11 0.131z" fill="#ffdb99" data-fill-palette-color="primary"></path><path d="M141.402 20.675v0 0c1.095 0.004 2.001-0.101 2.718-0.315 0.717-0.221 1.232-0.435 1.543-0.644v0l0.019-5.667-4.847 0.49c-1.359 0.097-2.363 0.394-3.014 0.893-0.657 0.491-0.987 1.206-0.991 2.145v0c-0.003 0.96 0.379 1.715 1.148 2.265 0.769 0.55 1.91 0.828 3.424 0.833zM141.417 4.14v0 0c2.264 0.008 4.06 0.524 5.388 1.549 1.328 1.018 1.988 2.622 1.981 4.812v0l-0.031 9.266c-0.002 0.574-0.115 1.01-0.339 1.307-0.224 0.297-0.56 0.576-1.006 0.838v0c-0.623 0.336-1.455 0.647-2.498 0.934-1.049 0.28-2.222 0.418-3.519 0.414v0c-2.453-0.008-4.351-0.498-5.692-1.469-1.335-0.964-1.999-2.359-1.994-4.184v0c0.006-1.696 0.578-2.992 1.717-3.887 1.132-0.895 2.702-1.43 4.709-1.606v0l5.558-0.529 0.003-1.094c0.004-1.304-0.384-2.259-1.166-2.863-0.775-0.597-1.829-0.898-3.16-0.903v0c-1.068-0.004-2.092 0.148-3.073 0.456-0.981 0.308-1.847 0.656-2.599 1.045v0c-0.209-0.183-0.397-0.4-0.566-0.65-0.168-0.244-0.252-0.498-0.251-0.762v0c0.002-0.676 0.383-1.195 1.141-1.557v0c0.704-0.363 1.519-0.64 2.446-0.833 0.92-0.193 1.904-0.288 2.951-0.284z" fill="#ffdb99" data-fill-palette-color="primary"></path><path d="M172.158 14.837v0l-0.992 4.38-3.055-0.692 0.94-4.152c0.282-1.246 0.127-2.244-0.465-2.995-0.594-0.744-1.487-1.252-2.68-1.522v0c-0.784-0.178-1.574-0.225-2.369-0.142-0.796 0.09-1.486 0.242-2.068 0.457v0l-1.476 6.516-3.055-0.692 1.442-6.367c0.115-0.508 0.321-0.915 0.619-1.222 0.298-0.307 0.751-0.564 1.36-0.773v0c0.783-0.273 1.738-0.452 2.866-0.536 1.126-0.078 2.223 0.005 3.291 0.246v0c1.299 0.294 2.397 0.751 3.297 1.371 0.899 0.619 1.515 1.327 1.847 2.123v0c0.117 0.186 0.211 0.353 0.282 0.5 0.076 0.156 0.14 0.344 0.195 0.564v0c0.108 0.35 0.17 0.78 0.186 1.29 0.023 0.511-0.032 1.06-0.165 1.646zM183.313 17.447v0l-0.974 4.301-3.056-0.692 0.941-4.153c0.282-1.246 0.134-2.243-0.445-2.991-0.581-0.741-1.467-1.247-2.661-1.517v0c-0.89-0.202-1.789-0.211-2.696-0.028-0.914 0.181-1.778 0.54-2.593 1.076v0l-0.714-2.491c0.808-0.51 1.802-0.888 2.98-1.133 1.177-0.239 2.451-0.204 3.822 0.106v0c1.371 0.31 2.512 0.797 3.421 1.461 0.905 0.655 1.537 1.491 1.896 2.508 0.359 1.017 0.385 2.201 0.079 3.553zM155.435 22.63l1.959-8.652 3.056 0.692-2.21 9.759c-0.144 0.023-0.348 0.039-0.614 0.048-0.271 0.001-0.557-0.033-0.861-0.101v0c-0.534-0.121-0.915-0.318-1.144-0.592-0.234-0.282-0.296-0.666-0.186-1.154zM166.608 25.16l1.959-8.652 3.056 0.692-2.211 9.759c-0.144 0.023-0.355 0.037-0.633 0.044-0.284-0.002-0.564-0.034-0.841-0.097v0c-0.56-0.127-0.948-0.326-1.164-0.596-0.221-0.279-0.276-0.662-0.166-1.15zM177.781 27.69l1.959-8.651 3.056 0.692-2.211 9.759c-0.144 0.023-0.355 0.037-0.633 0.043-0.284-0.002-0.564-0.034-0.841-0.097v0c-0.56-0.127-0.948-0.326-1.164-0.596-0.221-0.279-0.276-0.662-0.166-1.15z" fill="#ffdb99" data-fill-palette-color="primary"></path><path d="M201.835 19.467v0 0c1.448 0.716 2.598 1.669 3.45 2.859 0.849 1.196 1.295 2.589 1.338 4.178 0.037 1.587-0.423 3.349-1.382 5.289v0c-0.97 1.963-2.109 3.405-3.417 4.327-1.317 0.925-2.734 1.389-4.251 1.393-1.511 0.007-3.073-0.388-4.684-1.185v0c-1.145-0.566-2.112-1.218-2.902-1.955-0.783-0.734-1.385-1.408-1.804-2.023v0c-0.329-0.57-0.517-1.043-0.564-1.421-0.05-0.372 0.046-0.803 0.289-1.293v0l5.768-11.669 2.799 1.384-5.768 11.669c0.226 0.428 0.619 0.928 1.181 1.5 0.562 0.572 1.276 1.072 2.142 1.5v0c1.587 0.785 3.114 0.914 4.581 0.387 1.467-0.527 2.732-1.865 3.795-4.016v0c1.075-2.175 1.366-3.999 0.873-5.472-0.49-1.479-1.496-2.594-3.017-3.346v0c-0.933-0.461-1.848-0.691-2.746-0.69-0.907 0.004-1.709 0.124-2.406 0.36v0l0.596-2.533c0.713-0.145 1.603-0.207 2.67-0.184 1.064 0.013 2.217 0.327 3.459 0.941zM199.975 12.271l-3.778 7.643-2.799-1.384 4.281-8.661c0.139 0.008 0.346 0.047 0.622 0.115 0.272 0.059 0.551 0.159 0.836 0.3v0c0.485 0.24 0.802 0.521 0.951 0.844 0.143 0.32 0.106 0.701-0.113 1.143z" fill="#ffdb99" data-fill-palette-color="primary"></path><path d="M212.44 45.78v0 0c0.875 0.658 1.664 1.116 2.367 1.373 0.707 0.252 1.247 0.388 1.621 0.407v0l3.406-4.529-4.178-2.507c-1.147-0.735-2.13-1.098-2.949-1.088-0.82 0-1.513 0.376-2.077 1.126v0c-0.577 0.767-0.722 1.601-0.435 2.502 0.287 0.901 1.035 1.806 2.245 2.716zM222.344 32.539v0 0c1.81 1.361 2.94 2.849 3.391 4.465 0.455 1.61 0.025 3.291-1.291 5.041v0l-5.568 7.406c-0.345 0.459-0.696 0.741-1.054 0.844-0.357 0.104-0.793 0.127-1.308 0.07v0c-0.7-0.104-1.553-0.352-2.56-0.745-1.008-0.403-2.03-0.994-3.067-1.774v0c-1.961-1.474-3.189-3.002-3.683-4.583-0.493-1.571-0.191-3.086 0.906-4.545v0c1.019-1.356 2.253-2.052 3.7-2.088 1.442-0.04 3.021 0.47 4.735 1.531v0l4.769 2.901 0.658-0.875c0.784-1.043 1.043-2.04 0.779-2.992-0.264-0.942-0.928-1.814-1.993-2.614v0c-0.854-0.642-1.765-1.133-2.735-1.473-0.97-0.34-1.873-0.579-2.708-0.717v0c-0.058-0.272-0.079-0.558-0.064-0.86 0.011-0.296 0.096-0.549 0.254-0.76v0c0.406-0.54 1.021-0.729 1.846-0.566v0c0.781 0.131 1.601 0.396 2.459 0.796 0.852 0.396 1.697 0.908 2.534 1.538z" fill="#ffdb99" data-fill-palette-color="primary"></path><path d="M241.307 60.104v0l-2.923 2.709-2.129-2.298 2.811-2.605c1.071-0.992 1.576-2.018 1.516-3.077-0.065-1.064-0.566-2.102-1.503-3.113v0c-0.708-0.763-1.431-1.355-2.171-1.776-0.74-0.411-1.429-0.712-2.068-0.904v0l-4.959 4.597-2.13-2.298 4.848-4.493c0.402-0.372 0.807-0.596 1.217-0.671 0.409-0.075 0.924-0.027 1.544 0.145v0c0.747 0.229 1.631 0.636 2.651 1.22 1.02 0.584 2.008 1.392 2.964 2.422v0c1.613 1.74 2.486 3.478 2.621 5.215 0.139 1.741-0.624 3.384-2.289 4.927zM222.822 55.908l6.506-6.03 2.129 2.298-7.339 6.802c-0.132-0.062-0.309-0.165-0.533-0.308-0.224-0.152-0.441-0.342-0.653-0.57v0c-0.372-0.402-0.575-0.78-0.61-1.135-0.034-0.365 0.132-0.717 0.5-1.057zM231.325 65.084l6.506-6.03 2.13 2.298-7.339 6.801c-0.127-0.057-0.309-0.165-0.547-0.322-0.228-0.157-0.441-0.342-0.639-0.555v0c-0.391-0.421-0.598-0.805-0.624-1.15-0.025-0.355 0.146-0.702 0.513-1.042z" fill="#ffdb99" data-fill-palette-color="primary"></path><path d="M245.385 82.897v0l11.176-6.889 1.678 2.645-11.314 6.974c-0.42 0.259-0.818 0.373-1.194 0.343-0.37-0.034-0.798-0.175-1.285-0.423v0c-0.564-0.271-1.228-0.736-1.99-1.393-0.76-0.667-1.468-1.532-2.124-2.596v0c-0.986-1.599-1.579-3.179-1.779-4.74-0.194-1.564 0.091-3.053 0.855-4.468 0.76-1.421 2.083-2.713 3.97-3.877v0c1.933-1.192 3.707-1.817 5.322-1.875 1.612-0.065 3.059 0.306 4.341 1.111 1.273 0.803 2.333 1.892 3.181 3.267v0c0.536 0.869 0.919 1.768 1.151 2.697 0.237 0.926 0.314 1.72 0.23 2.383v0l-2.46 1.516c0.161-0.679 0.182-1.45 0.063-2.313-0.119-0.863-0.459-1.75-1.019-2.659v0c-0.56-0.909-1.273-1.633-2.137-2.172-0.87-0.536-1.892-0.763-3.065-0.683-1.173 0.08-2.505 0.579-3.995 1.498v0c-2.019 1.245-3.188 2.64-3.506 4.185-0.318 1.546 0.022 3.127 1.018 4.744v0c0.479 0.777 0.956 1.364 1.432 1.761 0.475 0.398 0.959 0.719 1.451 0.964zM264.997 74.488l-7.422 4.575-1.679-2.646 8.423-5.191c0.113 0.081 0.269 0.223 0.466 0.427 0.199 0.195 0.375 0.416 0.528 0.663v0c0.301 0.489 0.428 0.907 0.38 1.254-0.044 0.353-0.277 0.659-0.696 0.918z" fill="#ffdb99" data-fill-palette-color="primary"></path><path d="M263.391 104.26l-3.437 1.314-1.119-2.927 3.362-1.284c1.465-0.56 2.392-1.381 2.782-2.463 0.396-1.085 0.346-2.274-0.148-3.568v0c-0.362-0.947-0.882-1.758-1.559-2.433-0.671-0.677-1.37-1.199-2.096-1.565v0l2.157-1.454c0.641 0.428 1.356 1.041 2.147 1.839 0.796 0.796 1.437 1.828 1.921 3.097v0c0.772 2.02 0.855 3.884 0.249 5.592-0.598 1.712-2.017 2.996-4.259 3.852zM248.257 93.341l8.504-3.25 1.115 2.917-9.565 3.655c-0.096-0.101-0.222-0.259-0.377-0.475-0.151-0.225-0.282-0.482-0.393-0.772v0c-0.195-0.511-0.244-0.941-0.145-1.29 0.107-0.345 0.394-0.606 0.861-0.785zM252.708 104.989l8.467-3.235 1.08 2.94-9.489 3.626c-0.099-0.107-0.228-0.275-0.388-0.503-0.156-0.237-0.284-0.488-0.385-0.753v0c-0.205-0.537-0.255-0.97-0.15-1.3 0.109-0.338 0.398-0.597 0.865-0.775zM270.84 88.053l-14.385 5.498-1.114-2.917 15.445-5.903c0.096 0.101 0.222 0.27 0.378 0.507 0.16 0.228 0.296 0.491 0.41 0.788v0c0.193 0.505 0.235 0.927 0.125 1.265-0.112 0.332-0.398 0.586-0.859 0.762z" fill="#ffdb99" data-fill-palette-color="primary"></path><path d="M31.549 180.932v0l-0.05-0.144c-1.163-0.006-2.547-0.009-4.153-0.009-1.605 0-3.257 0.001-4.953 0.004-1.697 0.003-3.278 0.001-4.743-0.005v0l-0.622 0.004c-0.498 0.011-1.116 0.024-1.855 0.041-0.742 0.011-1.519 0.02-2.334 0.027-0.806 0.012-1.563 0.017-2.273 0.017-0.703-0.003-1.274 0.005-1.712 0.023v0c-0.131-0.147-0.248-0.307-0.351-0.478-0.103-0.171-0.202-0.391-0.297-0.659v0c-0.139-0.395-0.158-0.783-0.055-1.163 0.103-0.38 0.386-0.652 0.852-0.816v0c0.223-0.079 0.462-0.123 0.716-0.134 0.263-0.007 0.545-0.009 0.846-0.008v0c0.947 0.003 2.095 0.007 3.444 0.011 1.358 0.009 2.841 0.02 4.451 0.033 1.608 0.007 3.26 0.03 4.958 0.07 1.698 0.039 3.356 0.078 4.975 0.117 1.619 0.039 3.1 0.083 4.443 0.132v0c0.165 0.164 0.367 0.422 0.607 0.775 0.235 0.362 0.426 0.753 0.574 1.174v0c0.173 0.491 0.266 0.988 0.279 1.492 0.015 0.511-0.128 0.887-0.429 1.13v0c-1.221 1.09-2.615 2.29-4.181 3.601-1.572 1.314-3.212 2.658-4.92 4.035-1.714 1.378-3.381 2.707-5.001 3.987-1.622 1.274-3.099 2.421-4.43 3.443v0c-0.277-0.096-0.536-0.259-0.775-0.491-0.233-0.233-0.41-0.522-0.531-0.866v0c-0.166-0.472-0.187-0.866-0.062-1.182 0.123-0.323 0.399-0.657 0.829-1.002v0l5.291-4.143 0.928-0.66c1.331-1.021 2.666-2.064 4.002-3.131 1.337-1.066 2.576-2.054 3.717-2.965 1.147-0.913 2.086-1.667 2.815-2.26zM19.442 191.626l-4.172-11.837 2.804 0.087 3.626 10.288z" fill="#ffdb99" data-fill-palette-color="primary"></path><path d="M33.132 200.918v0l-5.401 2.992-1.517-2.741 5.196-2.878c0.526-0.291 0.997-0.425 1.413-0.4 0.415 0.025 0.897 0.183 1.445 0.475v0c0.712 0.378 1.497 1.002 2.357 1.87 0.85 0.866 1.623 1.925 2.317 3.178v0c1.012 1.827 1.063 2.993 0.152 3.497v0c-0.231 0.128-0.463 0.21-0.698 0.247-0.231 0.043-0.446 0.046-0.644 0.009v0c-0.08-0.257-0.198-0.582-0.354-0.974-0.158-0.384-0.339-0.759-0.542-1.125v0c-0.583-1.052-1.202-1.919-1.857-2.599-0.661-0.677-1.283-1.194-1.867-1.551zM19.819 204.711l7.964-4.411 1.11 2.966-8.549 4.736c-0.113-0.092-0.261-0.234-0.445-0.426-0.181-0.201-0.347-0.438-0.497-0.71v0c-0.265-0.479-0.372-0.895-0.32-1.248 0.054-0.362 0.3-0.665 0.737-0.907z" fill="#ffdb99" data-fill-palette-color="primary"></path><path d="M46.529 229.146v0 0c-1.513 1.203-3.058 1.964-4.633 2.284-1.576 0.32-3.082 0.201-4.519-0.358-1.442-0.555-2.722-1.536-3.841-2.943v0c-1.119-1.407-1.787-2.879-2.006-4.415-0.228-1.537-0.009-3.036 0.659-4.499 0.668-1.463 1.758-2.796 3.271-3.998v0c1.529-1.215 3.081-1.973 4.654-2.275 1.574-0.301 3.084-0.172 4.53 0.389 1.451 0.565 2.727 1.541 3.829 2.927v0c1.106 1.392 1.764 2.85 1.974 4.375 0.215 1.53-0.002 3.028-0.651 4.493-0.649 1.465-1.738 2.805-3.267 4.02zM46.449 217.866v0 0c-1.085-1.365-2.431-2.065-4.039-2.099-1.612-0.04-3.264 0.613-4.957 1.958v0c-1.714 1.362-2.737 2.818-3.068 4.368-0.341 1.548 0.048 3.026 1.166 4.433v0c1.106 1.392 2.457 2.092 4.053 2.102 1.591 0.014 3.233-0.652 4.926-1.998v0c1.693-1.346 2.713-2.795 3.059-4.347 0.346-1.553-0.034-3.025-1.14-4.417z" fill="#ffdb99" data-fill-palette-color="primary"></path><path d="M52.351 245.722v0 0c-1.145-0.99-2.009-2.125-2.59-3.406-0.582-1.28-0.736-2.678-0.463-4.192 0.283-1.516 1.14-3.102 2.572-4.758v0c1.295-1.498 2.667-2.501 4.115-3.009 1.449-0.498 2.911-0.561 4.385-0.19 1.465 0.373 2.859 1.131 4.184 2.277v0c0.905 0.782 1.641 1.615 2.208 2.499 0.558 0.884 0.949 1.714 1.173 2.488v0c0.124 0.456 0.175 0.888 0.152 1.297-0.028 0.405-0.197 0.786-0.507 1.143v0l-7.896 9.135-2.362-2.043 7.87-9.103c-0.147-0.512-0.399-1.068-0.754-1.67-0.36-0.597-0.885-1.194-1.575-1.79v0c-1.324-1.145-2.739-1.662-4.246-1.554-1.506 0.109-2.949 0.962-4.328 2.557v0c-1.534 1.774-2.217 3.391-2.048 4.85 0.173 1.454 0.86 2.7 2.062 3.739v0c0.869 0.751 1.696 1.211 2.479 1.379 0.788 0.163 1.495 0.203 2.122 0.119v0l-1.702 2.201c-0.565 0.065-1.285-0.048-2.159-0.339-0.869-0.287-1.766-0.83-2.692-1.63zM55.067 249.571v0l2.686-3.106 2.362 2.042-2.811 3.252c-1.127 1.304-2.31 2.108-3.548 2.414-1.243 0.301-2.508 0.209-3.794-0.278-1.282-0.491-2.533-1.265-3.755-2.322v0c-0.987-0.853-1.743-1.694-2.268-2.523-0.521-0.834-0.849-1.431-0.985-1.79v0c-0.306-0.845-0.235-1.526 0.211-2.042v0c0.239-0.276 0.501-0.451 0.788-0.525 0.296-0.074 0.584-0.076 0.862-0.005v0c0.14 0.675 0.476 1.475 1.008 2.399 0.527 0.92 1.225 1.756 2.095 2.508v0c1.319 1.14 2.576 1.727 3.772 1.76 1.196 0.033 2.321-0.562 3.377-1.784z" fill="#ffdb99" data-fill-palette-color="primary"></path><path d="M71.742 255.161v0 0c0.032-0.949 0.134-2.193 0.304-3.734 0.165-1.544 0.399-3.242 0.704-5.095 0.302-1.862 0.651-3.732 1.048-5.61v0c0.286-0.131 0.597-0.19 0.932-0.176 0.335 0.014 0.652 0.107 0.951 0.279v0c0.381 0.22 0.639 0.501 0.776 0.846 0.128 0.347 0.134 0.803 0.018 1.368v0c-0.415 2.289-0.791 4.584-1.128 6.886-0.337 2.302-0.634 4.718-0.891 7.246v0l0.141 0.081c1.021-0.675 2.203-1.573 3.544-2.695 1.336-1.125 2.697-2.342 4.083-3.649 1.383-1.301 2.637-2.563 3.764-3.786v0c0.195 0.027 0.406 0.067 0.633 0.119 0.224 0.059 0.447 0.152 0.669 0.281v0c0.386 0.223 0.648 0.499 0.787 0.828 0.14 0.338 0.099 0.701-0.124 1.087v0c-0.206 0.357-0.656 0.901-1.351 1.632-0.695 0.731-1.537 1.556-2.528 2.474-0.993 0.91-2.082 1.858-3.267 2.844-1.189 0.992-2.397 1.937-3.625 2.836-1.228 0.899-2.392 1.679-3.492 2.34v0c-2.15 1.319-3.947 2.244-5.393 2.776-1.455 0.534-2.542 0.593-3.263 0.178v0c-0.521-0.301-0.843-0.669-0.965-1.107-0.126-0.431-0.119-0.849 0.021-1.252v0c0.744-0.14 1.631-0.386 2.66-0.737 1.033-0.356 2.077-0.78 3.132-1.271 1.047-0.489 1.967-1.003 2.763-1.543v0c-0.322-0.334-0.563-0.742-0.722-1.224-0.159-0.482-0.219-1.223-0.181-2.222z" fill="#ffdb99" data-fill-palette-color="primary"></path><path d="M94.149 267.93v0 0c1.026 0.382 1.913 0.597 2.659 0.644 0.749 0.041 1.306 0.017 1.671-0.071v0l1.977-5.311-4.719-1.215c-1.308-0.379-2.354-0.447-3.136-0.205-0.787 0.234-1.344 0.791-1.672 1.671v0c-0.335 0.899-0.237 1.74 0.295 2.522 0.531 0.782 1.506 1.437 2.925 1.965zM99.879 252.42v0 0c2.122 0.79 3.629 1.895 4.521 3.316 0.894 1.415 0.959 3.148 0.195 5.2v0l-3.233 8.684c-0.2 0.538-0.457 0.908-0.77 1.109-0.313 0.201-0.724 0.347-1.234 0.439v0c-0.701 0.1-1.589 0.104-2.666 0.013-1.081-0.099-2.229-0.376-3.445-0.828v0c-2.299-0.856-3.91-1.971-4.834-3.347-0.919-1.366-1.061-2.905-0.424-4.614v0c0.592-1.59 1.577-2.608 2.954-3.054 1.371-0.449 3.029-0.408 4.975 0.121v0l5.397 1.425 0.382-1.026c0.455-1.222 0.42-2.252-0.105-3.09-0.521-0.829-1.405-1.475-2.653-1.94v0c-1.001-0.373-2.015-0.584-3.041-0.634-1.027-0.051-1.96-0.023-2.8 0.082v0c-0.133-0.244-0.235-0.513-0.306-0.806-0.073-0.287-0.064-0.554 0.028-0.801v0c0.236-0.633 0.772-0.989 1.609-1.067v0c0.786-0.097 1.647-0.076 2.583 0.064 0.93 0.137 1.886 0.388 2.867 0.754z" fill="#ffdb99" data-fill-palette-color="primary"></path><path d="M117.681 273.818v0 0c1.724 0.304 3.098 0.141 4.122-0.489 1.022-0.623 1.642-1.55 1.858-2.781v0c0.186-1.058-0.002-1.994-0.565-2.807-0.557-0.812-1.531-1.553-2.924-2.224v0l-3.168-1.587c-1.02-0.523-1.883-1.117-2.589-1.784-0.699-0.665-1.193-1.428-1.481-2.289-0.282-0.853-0.331-1.805-0.146-2.856v0c0.348-1.977 1.34-3.398 2.975-4.263 1.628-0.866 3.637-1.089 6.026-0.668v0c1.384 0.244 2.597 0.608 3.637 1.093 1.039 0.492 1.834 1.023 2.385 1.594 0.544 0.576 0.77 1.12 0.68 1.633v0c-0.059 0.333-0.201 0.617-0.427 0.851-0.228 0.241-0.495 0.414-0.802 0.517v0c-0.555-0.626-1.345-1.228-2.368-1.806-1.017-0.577-2.168-0.979-3.453-1.205v0c-1.491-0.263-2.73-0.141-3.718 0.364-0.987 0.499-1.58 1.314-1.779 2.445v0c-0.158 0.899 0.026 1.683 0.553 2.352 0.533 0.677 1.468 1.346 2.807 2.008v0l2.225 1.102c1.931 0.923 3.383 2.027 4.358 3.31 0.982 1.285 1.305 2.879 0.969 4.782v0c-0.356 2.023-1.384 3.534-3.083 4.532-1.699 0.998-3.883 1.262-6.552 0.792v0c-1.564-0.275-2.902-0.689-4.012-1.242-1.104-0.551-1.936-1.147-2.496-1.788-0.566-0.642-0.804-1.219-0.714-1.732v0c0.077-0.439 0.278-0.781 0.603-1.026 0.319-0.253 0.669-0.411 1.051-0.473v0c0.493 0.67 1.23 1.376 2.21 2.118 0.981 0.742 2.254 1.251 3.818 1.527z" fill="#ffdb99" data-fill-palette-color="primary"></path><path d="M141.451 275.684v0 0c1.095-0.004 2-0.115 2.716-0.333 0.716-0.225 1.229-0.443 1.539-0.654v0l-0.02-5.667-4.844 0.523c-1.358 0.106-2.361 0.41-3.008 0.912-0.654 0.496-0.979 1.213-0.976 2.153v0c0.003 0.96 0.391 1.712 1.164 2.257 0.772 0.545 1.915 0.815 3.429 0.809zM141.354 259.15v0 0c2.264-0.008 4.064 0.497 5.399 1.512 1.335 1.009 2.006 2.609 2.013 4.799v0l0.032 9.266c0.002 0.574-0.108 1.011-0.33 1.309-0.222 0.298-0.556 0.58-1.001 0.845v0c-0.621 0.34-1.451 0.657-2.491 0.951-1.047 0.287-2.219 0.433-3.516 0.437v0c-2.453 0.008-4.354-0.469-5.703-1.43-1.341-0.955-2.015-2.345-2.021-4.17v0c-0.006-1.696 0.558-2.996 1.69-3.899 1.126-0.903 2.692-1.449 4.698-1.638v0l5.554-0.566-0.004-1.095c-0.004-1.304-0.4-2.256-1.185-2.855-0.779-0.592-1.835-0.886-3.166-0.881v0c-1.068 0.004-2.091 0.163-3.071 0.477-0.979 0.314-1.843 0.669-2.591 1.063v0c-0.21-0.182-0.4-0.397-0.57-0.647-0.17-0.243-0.255-0.496-0.256-0.76v0c-0.002-0.676 0.374-1.198 1.13-1.565v0c0.702-0.367 1.515-0.651 2.44-0.849 0.919-0.199 1.902-0.3 2.949-0.304z" fill="#ffdb99" data-fill-palette-color="primary"></path><path d="M170.733 260.736v0l0.992 4.381-3.055 0.692-0.94-4.153c-0.282-1.246-0.852-2.08-1.711-2.503-0.856-0.416-1.881-0.489-3.074-0.218v0c-0.784 0.178-1.517 0.475-2.199 0.893-0.68 0.424-1.237 0.859-1.669 1.303v0l1.475 6.516-3.055 0.692-1.442-6.368c-0.115-0.508-0.104-0.964 0.033-1.369 0.137-0.405 0.435-0.833 0.894-1.283v0c0.589-0.584 1.374-1.156 2.355-1.719 0.983-0.555 2.008-0.954 3.077-1.195v0c1.299-0.294 2.487-0.355 3.565-0.184 1.078 0.172 1.939 0.545 2.582 1.12v0c0.186 0.117 0.343 0.227 0.47 0.33 0.135 0.108 0.275 0.25 0.418 0.425v0c0.248 0.27 0.489 0.631 0.724 1.083 0.241 0.451 0.428 0.97 0.56 1.557zM181.924 258.285v0l0.974 4.301-3.055 0.692-0.941-4.153c-0.282-1.246-0.846-2.081-1.69-2.506-0.843-0.419-1.861-0.493-3.054-0.223v0c-0.89 0.202-1.705 0.58-2.446 1.135-0.747 0.557-1.372 1.253-1.876 2.089v0l-1.718-1.94c0.51-0.808 1.244-1.577 2.201-2.307 0.959-0.723 2.124-1.24 3.495-1.55v0c1.371-0.31 2.61-0.362 3.717-0.156 1.099 0.202 2.029 0.684 2.791 1.447 0.762 0.763 1.296 1.82 1.602 3.171zM159 274.973l-1.96-8.651 3.056-0.692 2.21 9.759c-0.12 0.083-0.298 0.185-0.534 0.308-0.244 0.118-0.517 0.211-0.82 0.279v0c-0.534 0.121-0.963 0.107-1.288-0.041-0.333-0.153-0.554-0.474-0.664-0.962zM170.173 272.443l-1.96-8.651 3.055-0.692 2.211 9.759c-0.12 0.083-0.304 0.187-0.553 0.312-0.257 0.121-0.524 0.212-0.801 0.275v0c-0.56 0.127-0.996 0.115-1.307-0.037-0.32-0.156-0.535-0.478-0.645-0.966zM181.345 269.913l-1.959-8.652 3.055-0.692 2.211 9.759c-0.12 0.083-0.304 0.187-0.553 0.313-0.257 0.121-0.524 0.212-0.801 0.274v0c-0.56 0.127-0.996 0.115-1.308-0.036-0.32-0.156-0.535-0.478-0.645-0.966z" fill="#ffdb99" data-fill-palette-color="primary"></path><path d="M193.604 245.746v0 0c1.448-0.716 2.903-1.051 4.366-1.005 1.466 0.052 2.843 0.543 4.132 1.474 1.283 0.934 2.404 2.37 3.363 4.309v0c0.97 1.963 1.425 3.744 1.364 5.342-0.065 1.608-0.556 3.016-1.475 4.224-0.912 1.205-2.174 2.206-3.786 3.002v0c-1.145 0.566-2.25 0.939-3.314 1.119-1.059 0.177-1.96 0.245-2.704 0.205v0c-0.652-0.085-1.143-0.223-1.471-0.415-0.326-0.186-0.61-0.524-0.853-1.014v0l-5.768-11.669 2.799-1.384 5.769 11.669c0.477 0.081 1.113 0.072 1.908-0.028 0.795-0.099 1.626-0.363 2.493-0.791v0c1.587-0.785 2.617-1.92 3.089-3.405 0.472-1.485 0.177-3.303-0.886-5.453v0c-1.075-2.175-2.348-3.514-3.818-4.016-1.473-0.508-2.969-0.387-4.49 0.365v0c-0.933 0.461-1.672 1.049-2.216 1.762-0.547 0.723-0.939 1.433-1.175 2.13v0l-1.65-2.011c0.317-0.654 0.809-1.399 1.475-2.233 0.657-0.837 1.606-1.563 2.848-2.177zM186.757 242.854l3.778 7.643-2.799 1.384-4.281-8.661c0.091-0.105 0.247-0.247 0.469-0.424 0.212-0.18 0.461-0.341 0.745-0.482v0c0.485-0.24 0.901-0.321 1.248-0.243 0.341 0.08 0.621 0.341 0.84 0.783z" fill="#ffdb99" data-fill-palette-color="primary"></path><path d="M221.151 247.67v0 0c0.875-0.658 1.534-1.289 1.977-1.892 0.439-0.609 0.719-1.09 0.842-1.444v0l-3.406-4.53-3.568 3.317c-1.025 0.897-1.646 1.741-1.865 2.531-0.228 0.788-0.059 1.558 0.506 2.309v0c0.577 0.767 1.338 1.138 2.282 1.112 0.945-0.025 2.022-0.493 3.232-1.403zM211.182 234.478v0 0c1.81-1.361 3.553-2.033 5.231-2.017 1.673 0.01 3.168 0.89 4.484 2.641v0l5.569 7.406c0.345 0.459 0.518 0.875 0.518 1.246 0 0.372-0.098 0.797-0.296 1.276v0c-0.294 0.644-0.77 1.395-1.427 2.252-0.667 0.856-1.519 1.675-2.556 2.455v0c-1.961 1.474-3.769 2.229-5.425 2.265-1.646 0.037-3.018-0.674-4.115-2.132v0c-1.019-1.356-1.345-2.734-0.978-4.136 0.362-1.397 1.29-2.771 2.785-4.123v0l4.112-3.776-0.658-0.875c-0.784-1.043-1.67-1.569-2.658-1.579-0.979-0.008-2 0.388-3.064 1.188v0c-0.854 0.642-1.579 1.381-2.175 2.219-0.596 0.837-1.077 1.638-1.441 2.402v0c-0.277-0.02-0.558-0.079-0.844-0.177-0.281-0.093-0.501-0.245-0.659-0.456v0c-0.406-0.54-0.416-1.184-0.031-1.93v0c0.343-0.714 0.825-1.428 1.447-2.141 0.617-0.709 1.344-1.378 2.181-2.008z" fill="#ffdb99" data-fill-palette-color="primary"></path><path d="M237.439 218.175v0l2.922 2.708-2.129 2.298-2.811-2.605c-1.071-0.992-2.132-1.418-3.183-1.278-1.056 0.145-2.053 0.724-2.99 1.735v0c-0.708 0.763-1.243 1.53-1.606 2.299-0.353 0.769-0.601 1.479-0.744 2.13v0l4.96 4.597-2.13 2.297-4.848-4.493c-0.402-0.372-0.655-0.759-0.761-1.162-0.106-0.402-0.097-0.919 0.027-1.55v0c0.172-0.762 0.51-1.674 1.015-2.736 0.505-1.062 1.235-2.108 2.191-3.139v0c1.613-1.74 3.279-2.743 5-3.01 1.726-0.271 3.421 0.365 5.087 1.909zM234.658 236.925l-6.506-6.03 2.129-2.297 7.339 6.801c-0.052 0.136-0.141 0.321-0.266 0.556-0.135 0.235-0.307 0.466-0.518 0.694v0c-0.372 0.402-0.734 0.633-1.086 0.694-0.361 0.062-0.725-0.078-1.092-0.418zM243.162 227.75l-6.506-6.03 2.129-2.298 7.339 6.802c-0.048 0.131-0.141 0.321-0.28 0.57-0.139 0.24-0.307 0.466-0.505 0.679v0c-0.391 0.421-0.757 0.658-1.099 0.709-0.352 0.052-0.711-0.093-1.078-0.432z" fill="#ffdb99" data-fill-palette-color="primary"></path><path d="M255.93 205.467v0l-11.176-6.889 1.609-2.688 11.314 6.974c0.42 0.259 0.701 0.563 0.843 0.912 0.136 0.346 0.203 0.792 0.199 1.338v0c0.011 0.626-0.106 1.427-0.35 2.404-0.254 0.979-0.709 2-1.365 3.065v0c-0.986 1.599-2.131 2.839-3.435 3.718-1.31 0.876-2.768 1.291-4.376 1.245-1.611-0.04-3.36-0.642-5.247-1.806v0c-1.933-1.192-3.289-2.496-4.067-3.912-0.782-1.411-1.101-2.87-0.958-4.377 0.145-1.498 0.642-2.935 1.49-4.31v0c0.536-0.869 1.166-1.615 1.892-2.24 0.72-0.628 1.396-1.053 2.026-1.276v0l2.459 1.516c-0.679 0.161-1.377 0.489-2.095 0.983-0.718 0.494-1.357 1.196-1.917 2.106v0c-0.56 0.909-0.887 1.871-0.98 2.885-0.088 1.018 0.168 2.033 0.767 3.045 0.599 1.012 1.643 1.978 3.133 2.896v0c2.019 1.245 3.791 1.662 5.315 1.251 1.523-0.411 2.783-1.424 3.78-3.041v0c0.479-0.777 0.789-1.467 0.93-2.07 0.142-0.603 0.211-1.18 0.209-1.73zM239.605 191.724l7.422 4.575-1.609 2.688-8.423-5.192c0.021-0.138 0.079-0.34 0.173-0.608 0.084-0.266 0.203-0.522 0.355-0.769v0c0.301-0.489 0.618-0.79 0.949-0.904 0.335-0.119 0.713-0.049 1.133 0.21z" fill="#ffdb99" data-fill-palette-color="primary"></path><path d="M259.337 176.054l3.437 1.314-1.118 2.926-3.362-1.285c-1.465-0.56-2.703-0.566-3.715-0.019-1.018 0.544-1.775 1.463-2.269 2.757v0c-0.362 0.947-0.515 1.898-0.461 2.852 0.049 0.952 0.221 1.807 0.518 2.564v0l-2.577-0.355c-0.192-0.746-0.317-1.68-0.373-2.802-0.063-1.124 0.149-2.32 0.634-3.589v0c0.772-2.02 1.953-3.464 3.544-4.332 1.587-0.877 3.501-0.887 5.742-0.031zM263.332 194.284l-8.504-3.25 1.115-2.917 9.564 3.655c0.005 0.139-0.007 0.341-0.036 0.605-0.037 0.268-0.111 0.547-0.222 0.838v0c-0.195 0.511-0.446 0.864-0.752 1.058-0.31 0.186-0.698 0.189-1.165 0.01zM267.783 182.635l-8.466-3.235 1.156-2.912 9.489 3.626c0.002 0.146-0.013 0.357-0.047 0.634-0.042 0.281-0.114 0.553-0.215 0.818v0c-0.205 0.537-0.457 0.893-0.755 1.068-0.307 0.179-0.694 0.18-1.162 0.001zM242.978 183.163l14.385 5.497-1.115 2.917-15.445-5.903c-0.005-0.139 0.014-0.349 0.056-0.63 0.033-0.277 0.107-0.563 0.22-0.86v0c0.193-0.505 0.443-0.847 0.75-1.026 0.305-0.173 0.688-0.171 1.149 0.005z" fill="#ffdb99" data-fill-palette-color="primary"></path><path d="M2.402 140.932c0-5.403 4.38-9.782 9.782-9.783 5.403 0 9.782 4.38 9.782 9.783 0 5.403-4.38 9.782-9.782 9.782-5.403 0-9.782-4.38-9.782-9.782z" fill="#ffdb99" data-fill-palette-color="primary"></path><path d="M256.303 140.932c0-5.403 4.38-9.782 9.783-9.783 5.403 0 9.782 4.38 9.782 9.783 0 5.403-4.38 9.782-9.782 9.782-5.403 0-9.782-4.38-9.783-9.782z" fill="#ffdb99" data-fill-palette-color="primary"></path></g><g id="text-1"></g></svg></g><g transform="matrix(1,0,0,1,53.1494936,293.88318102672986)"><svg viewBox="0 0 171.97061280000003 26.653324105873605" height="26.653324105873605" width="171.97061280000003"><g transform="matrix(1,0,0,1,0,0)"><svg width="171.97061280000003" viewBox="1.75 -37.377438691837995 293.0724999919 45.42743869183799" height="26.653324105873605" data-palette-color="#ff5db2"><path d="M4.85 0.15Q3.95 0.15 4.05-1.9L4.05-1.9 4.05-6.05 4.1-8.75Q4.1-10.25 4-13.25L4-13.25 3.95-16.45 3.95-17.95 2.95-17.95Q2.25-17.95 2.02-18.1 1.8-18.25 1.8-18.65L1.8-18.65 1.75-19.3Q1.75-19.8 2.02-19.98 2.3-20.15 3.1-20.15L3.1-20.15 4.1-20.15Q4.15-21.05 4.13-21.8 4.1-22.55 4.1-23.1L4.1-23.1 4.1-24.9Q4.1-26 4.05-26.6L4.05-26.6 4-28.7Q4-31.85 4.6-33.4L4.6-33.4Q5.3-35.35 7.08-36.25 8.85-37.15 10.9-37.15L10.9-37.15Q12.95-37.15 14.18-36.9 15.4-36.65 16.6-35.85L16.6-35.85Q16.95-35.65 16.75-35.25L16.75-35.25Q16.45-34.75 16.25-34L16.25-34 15.8-32.55Q15.75-32.45 15.63-31.93 15.5-31.4 15.3-31.4L15.3-31.4Q14.95-31.4 14.23-31.48 13.5-31.55 12.6-31.55L12.6-31.55Q11.8-31.55 11.45-31.18 11.1-30.8 11.05-29.9L11.05-29.9 11.05-20.05 12.8-20.1Q13.35-20.15 14.35-20.15L14.35-20.15Q15.15-20.15 15.43-19.95 15.7-19.75 15.7-19.3L15.7-19.3 15.65-18.65Q15.65-18.25 15.43-18.1 15.2-17.95 14.5-17.95L14.5-17.95Q13.6-17.95 13.05-18L13.05-18 11.05-18.05Q11-17.25 11-16.3L11-16.3Q10.95-15.95 10.95-15.15L10.95-15.15Q10.95-14.05 10.9-13.55L10.9-13.55Q10.9-13.15 10.88-12.55 10.85-11.95 10.9-11.15L10.9-11.15Q10.85-10.1 10.85-8.2L10.85-8.2Q10.85-4.9 11.15-2.05L11.15-2.05Q11.2-1.55 11.2-0.9L11.2-0.9Q11.2-0.5 10.98-0.3 10.75-0.1 10.2-0.05L10.2-0.05Q9.35 0.05 7.15 0.05L7.15 0.05Q6.6 0.1 5.9 0.1L5.9 0.1Q5.75 0.15 4.85 0.15L4.85 0.15ZM30.35 1.1Q23.75 1.1 21.55-3.98 19.35-9.05 19.35-14.85L19.35-14.85Q19.35-20.45 21.05-23.83 22.75-27.2 25.17-28.55 27.6-29.9 30.05-29.9L30.05-29.9Q34.65-29.9 37-27.48 39.35-25.05 40-21.73 40.65-18.4 40.65-14.25L40.65-14.25Q40.65-10.9 39.52-7.33 38.4-3.75 36.07-1.33 33.75 1.1 30.35 1.1L30.35 1.1ZM30-8.6Q31.65-8.6 32.42-10.15 33.2-11.7 33.2-13.9L33.2-13.9Q33.2-16.75 32.47-17.93 31.75-19.1 30.3-19.1L30.3-19.1Q27.2-19.1 27.2-13.5L27.2-13.5Q27.2-11.4 27.75-10 28.3-8.6 30-8.6L30-8.6ZM52.9 0.15Q52.85 0.15 52.12 0.05 51.4-0.05 50.2-0.05L50.2-0.05 46.35 0Q45.6 0 45.6-0.6L45.6-0.6Q45.6-0.8 45.62-1.95 45.65-3.1 45.65-5.9L45.65-5.9Q45.65-8.75 45.82-11.4 46-14.05 46-14.35L46-14.35 46.3-23.4 46.35-28.55Q46.35-29.1 46.6-29.15L46.6-29.15Q46.85-29.15 47.7-29.1 48.55-29.05 49.85-29.05L49.85-29.05Q50.85-29.05 51.82-29.1 52.8-29.15 53-29.15L53-29.15Q53.15-29.15 53.27-28.98 53.4-28.8 53.4-28.7L53.4-28.7 53.5-27.3Q55.2-28.4 57.47-29.18 59.75-29.95 60.95-29.95L60.95-29.95Q61.25-29.95 61.34-29.9L61.34-29.9Q61.45-29.85 61.57-29.48 61.7-29.1 61.8-28.85L61.8-28.85Q62.3-27.6 62.45-25.85L62.45-25.85Q62.5-25.05 62.7-24L62.7-24Q62.8-23.55 62.8-22.9L62.8-22.9Q62.8-22.5 62.75-22.45L62.75-22.45Q62.35-21.85 61.55-21.63 60.75-21.4 59.2-21.2L59.2-21.2Q57.25-21 55.85-20.6L55.85-20.6 53.65-20.1 53.7-18.1Q53.7-16.45 53.75-16.4L53.75-16.4 53.8-12.15Q53.9-8.85 53.9-3.15L53.9-3.15Q53.9-0.95 53.7-0.2L53.7-0.2Q53.7 0.15 52.9 0.15L52.9 0.15ZM84.19 0.2Q82.19 0.2 81.19-0.4 80.19-1 79.89-2.08 79.59-3.15 79.59-5L79.59-5 79.64-8.1 79.89-14 80.04-18.4 80.04-25.7Q77.64-25.7 77.29-26.5L77.29-26.5Q77.14-26.9 77.14-27.35L77.14-27.35Q77.14-27.85 77.22-28.3 77.29-28.75 77.29-29.15L77.29-29.15Q78.19-29.1 80.04-29.1L80.04-29.1 80.09-29.3 80.14-31.2 80.14-33.35Q80.09-34.55 80.32-34.98 80.54-35.4 80.99-35.4L80.99-35.4Q81.24-35.4 81.39-35.35L81.39-35.35 81.49-35.35Q81.59-35.35 81.84-35.38 82.09-35.4 82.29-35.3L82.29-35.3Q83.29-35.15 83.29-34.45L83.29-34.45Q83.29-34.3 83.19-33.3L83.19-33.3Q82.94-31.55 82.84-29.1L82.84-29.1 87.64-29.1Q88.04-29.1 88.29-28.43 88.54-27.75 88.54-27L88.54-27Q88.54-26 88.09-25.85L88.09-25.85Q87.14-25.55 85.79-25.55L85.79-25.55Q84.59-25.55 82.79-25.75L82.79-25.75 82.79-13.9 82.74-11.9Q82.59-9.95 82.59-7.85L82.59-7.85 82.59-6.85Q82.59-5.25 83.29-4.48 83.99-3.7 85.14-3.7L85.14-3.7Q86.24-3.7 87.04-3.78 87.84-3.85 88.19-3.85L88.19-3.85Q88.74-3.85 88.74-1.9L88.74-1.9 88.94-1.1Q89.09-0.75 88.89-0.7L88.89-0.7Q87.29-0.1 86.52 0.05 85.74 0.2 84.19 0.2L84.19 0.2ZM97.74 0Q96.04-0.05 94.14-0.05L94.14-0.05Q92.69-0.05 92.69-1.5L92.69-1.5 92.74-11.45 92.74-13.5Q92.69-14.35 92.69-15.6L92.69-15.6Q92.69-16.9 92.84-19.65L92.84-19.65Q92.99-21.5 93.09-27.1 93.19-32.7 93.19-34.85L93.19-34.85Q93.19-36.15 93.44-36.75 93.69-37.35 94.29-37.3L94.29-37.3Q94.94-37.25 96.04-37.25L96.04-37.25Q97.29-37.25 97.79-37.35L97.79-37.35Q98.44-37.5 98.69-36.83 98.94-36.15 98.94-35.3L98.94-35.3 98.89-29.25 99.89-29.7Q101.24-30.35 102.51-30.7 103.79-31.05 106.04-31.05L106.04-31.05Q109.19-31.05 110.94-29.75 112.69-28.45 113.51-25.05 114.34-21.65 114.34-15.15L114.34-15.15Q114.34-6.75 114.29-5.6L114.29-5.6 114.34-1.1Q114.34-0.6 114.19-0.3 114.04 0 113.79 0L113.79 0 109.14 0Q108.69 0 108.59-0.33 108.49-0.65 108.49-1.35L108.49-1.35Q108.49-1.7 108.54-2.4 108.59-3.1 108.59-4.1L108.59-4.1Q108.59-4.75 108.49-5.45L108.49-5.45Q108.44-5.7 108.54-9.55L108.54-9.55Q108.69-16.45 108.69-17.2L108.69-17.2Q108.69-20.6 108.36-22.48 108.04-24.35 107.06-25.25 106.09-26.15 104.14-26.15L104.14-26.15Q100.99-26.15 98.89-24.25L98.89-24.25Q98.64-18.25 98.64-12.55L98.64-12.55Q98.64-9.85 98.79-4.15L98.79-4.15 98.84-1.7Q98.84-0.9 98.64-0.45 98.44 0 97.74 0L97.74 0ZM130.89 1.1Q123.39 1.1 120.89-3.98 118.39-9.05 118.39-14.85L118.39-14.85Q118.39-20.45 120.09-23.83 121.79-27.2 124.21-28.55 126.64-29.9 129.09-29.9L129.09-29.9Q133.69-29.9 136.01-27.25 138.34-24.6 139.01-21.08 139.69-17.55 139.69-13.45L139.69-13.45Q139.69-13.1 139.19-13L139.19-13Q137.54-13 131.59-12.45L131.59-12.45Q130.64-12.35 129.29-12.23 127.94-12.1 126.29-12L126.29-12Q126.74-7.15 131.54-7.15L131.54-7.15Q133.14-7.15 134.01-7.45 134.89-7.75 136.84-8.7L136.84-8.7Q137.19-8.7 137.46-8.3 137.74-7.9 138.24-6.65L138.24-6.65Q138.39-6.4 138.61-5.7 138.84-5 139.04-4.65L139.04-4.65Q139.99-2.25 139.94-2.15L139.94-2.15Q139.84-1.95 139.39-1.6L139.39-1.6Q138.34-0.55 136.01 0.28 133.69 1.1 130.89 1.1L130.89 1.1ZM126.29-14.9L132.09-15.4Q131.69-21.1 129.34-21.1L129.34-21.1Q127.94-21.1 127.19-19.48 126.44-17.85 126.29-14.9L126.29-14.9ZM165.73 8.05Q165.48 8.05 165.26 8 165.03 7.95 164.83 7.95L164.83 7.95 158.18 7.9Q157.73 7.9 157.63 7.75 157.53 7.6 157.53 7.3L157.53 7.3Q157.53 7.15 157.51 6.73 157.48 6.3 157.48 5.3L157.48 5.3 157.68-0.5Q157.93-5.35 157.93-7.15L157.93-7.15 157.93-9.85Q157.93-10.95 157.88-11.6L157.88-11.6 157.78-24.6 157.68-26.7 157.58-28.55Q157.58-28.95 157.76-29.05 157.93-29.15 158.11-29.15 158.28-29.15 158.33-29.15L158.33-29.15 159.53-29.1 161.28-29 165.63-29.15Q165.98-29.15 166.03-28.98 166.08-28.8 166.08-28.2L166.08-28.2 166.08-27.85Q168.43-29.6 171.88-29.6L171.88-29.6Q175.53-29.6 177.51-26.63 179.48-23.65 180.11-20.15 180.73-16.65 180.73-14.15L180.73-14.15Q180.73-10.05 179.71-6.68 178.68-3.3 176.63-1.3 174.58 0.7 171.58 0.7L171.58 0.7Q170.03 0.7 168.56 0.4 167.08 0.1 166.23-0.4L166.23-0.4 166.18 4.45 166.13 7.7Q166.13 8.05 165.73 8.05L165.73 8.05ZM168.63-7.8Q171.98-7.8 171.98-14.3L171.98-14.3Q171.98-16.85 171.68-18.28 171.38-19.7 170.66-20.33 169.93-20.95 168.63-20.95L168.63-20.95Q167.78-20.95 167.23-20.58 166.68-20.2 166.13-19.6L166.13-19.6 166.03-17.95 166.13-14.65 166.18-12.1 166.18-8.9Q167.13-7.8 168.63-7.8L168.63-7.8ZM196.48 1.1Q188.98 1.1 186.48-3.98 183.98-9.05 183.98-14.85L183.98-14.85Q183.98-20.45 185.68-23.83 187.38-27.2 189.8-28.55 192.23-29.9 194.68-29.9L194.68-29.9Q199.28-29.9 201.6-27.25 203.93-24.6 204.6-21.08 205.28-17.55 205.28-13.45L205.28-13.45Q205.28-13.1 204.78-13L204.78-13Q203.13-13 197.18-12.45L197.18-12.45Q196.23-12.35 194.88-12.23 193.53-12.1 191.88-12L191.88-12Q192.33-7.15 197.13-7.15L197.13-7.15Q198.73-7.15 199.6-7.45 200.48-7.75 202.43-8.7L202.43-8.7Q202.78-8.7 203.05-8.3 203.33-7.9 203.83-6.65L203.83-6.65Q203.98-6.4 204.2-5.7 204.43-5 204.63-4.65L204.63-4.65Q205.58-2.25 205.53-2.15L205.53-2.15Q205.43-1.95 204.98-1.6L204.98-1.6Q203.93-0.55 201.6 0.28 199.28 1.1 196.48 1.1L196.48 1.1ZM191.88-14.9L197.68-15.4Q197.28-21.1 194.93-21.1L194.93-21.1Q193.53-21.1 192.78-19.48 192.03-17.85 191.88-14.9L191.88-14.9ZM219.83 1.1Q213.23 1.1 211.03-3.98 208.83-9.05 208.83-14.85L208.83-14.85Q208.83-20.45 210.53-23.83 212.23-27.2 214.65-28.55 217.08-29.9 219.53-29.9L219.53-29.9Q224.13-29.9 226.48-27.48 228.83-25.05 229.48-21.73 230.13-18.4 230.13-14.25L230.13-14.25Q230.13-10.9 229-7.33 227.88-3.75 225.55-1.33 223.23 1.1 219.83 1.1L219.83 1.1ZM219.48-8.6Q221.13-8.6 221.9-10.15 222.68-11.7 222.68-13.9L222.68-13.9Q222.68-16.75 221.95-17.93 221.23-19.1 219.78-19.1L219.78-19.1Q216.68-19.1 216.68-13.5L216.68-13.5Q216.68-11.4 217.23-10 217.78-8.6 219.48-8.6L219.48-8.6ZM243.62 8.05Q243.37 8.05 243.15 8 242.92 7.95 242.72 7.95L242.72 7.95 236.07 7.9Q235.62 7.9 235.52 7.75 235.42 7.6 235.42 7.3L235.42 7.3Q235.42 7.15 235.4 6.73 235.37 6.3 235.37 5.3L235.37 5.3 235.57-0.5Q235.82-5.35 235.82-7.15L235.82-7.15 235.82-9.85Q235.82-10.95 235.77-11.6L235.77-11.6 235.67-24.6 235.57-26.7 235.47-28.55Q235.47-28.95 235.65-29.05 235.82-29.15 236-29.15 236.17-29.15 236.22-29.15L236.22-29.15 237.42-29.1 239.17-29 243.52-29.15Q243.87-29.15 243.92-28.98 243.97-28.8 243.97-28.2L243.97-28.2 243.97-27.85Q246.32-29.6 249.77-29.6L249.77-29.6Q253.42-29.6 255.4-26.63 257.37-23.65 258-20.15 258.62-16.65 258.62-14.15L258.62-14.15Q258.62-10.05 257.6-6.68 256.57-3.3 254.52-1.3 252.47 0.7 249.47 0.7L249.47 0.7Q247.92 0.7 246.45 0.4 244.97 0.1 244.12-0.4L244.12-0.4 244.07 4.45 244.02 7.7Q244.02 8.05 243.62 8.05L243.62 8.05ZM246.52-7.8Q249.87-7.8 249.87-14.3L249.87-14.3Q249.87-16.85 249.57-18.28 249.27-19.7 248.55-20.33 247.82-20.95 246.52-20.95L246.52-20.95Q245.67-20.95 245.12-20.58 244.57-20.2 244.02-19.6L244.02-19.6 243.92-17.95 244.02-14.65 244.07-12.1 244.07-8.9Q245.02-7.8 246.52-7.8L246.52-7.8ZM268.42 0.2Q266.42 0.2 265.42-0.4 264.42-1 264.12-2.08 263.82-3.15 263.82-5L263.82-5 263.87-8.1 264.12-14 264.27-18.4 264.27-28.1Q264.27-29.9 264.32-30.9L264.32-30.9 264.37-32.8 264.37-34.95Q264.32-36.15 264.55-36.58 264.77-37 265.22-37L265.22-37Q265.47-37 265.62-36.95L265.62-36.95 265.72-36.95Q265.82-36.95 266.07-36.98 266.32-37 266.52-36.9L266.52-36.9Q267.52-36.75 267.52-36.05L267.52-36.05Q267.52-35.9 267.42-34.9L267.42-34.9Q266.97-31.25 267.02-25.8L267.02-25.8 267.02-13.9 266.92-11.65Q266.82-9.05 266.82-7.6L266.82-7.6 266.82-6.6Q266.82-5 267.52-4.23 268.22-3.45 269.37-3.45L269.37-3.45Q269.92-3.45 270.32-3.53 270.72-3.6 270.92-3.6L270.92-3.6Q271.47-3.6 271.47-2.85L271.47-2.85 271.77-0.8Q271.07-0.15 270.37 0.03 269.67 0.2 268.42 0.2L268.42 0.2ZM285.77 1.1Q278.27 1.1 275.77-3.98 273.27-9.05 273.27-14.85L273.27-14.85Q273.27-20.45 274.97-23.83 276.67-27.2 279.09-28.55 281.52-29.9 283.97-29.9L283.97-29.9Q288.57-29.9 290.89-27.25 293.22-24.6 293.89-21.08 294.57-17.55 294.57-13.45L294.57-13.45Q294.57-13.1 294.07-13L294.07-13Q292.42-13 286.47-12.45L286.47-12.45Q285.52-12.35 284.17-12.23 282.82-12.1 281.17-12L281.17-12Q281.62-7.15 286.42-7.15L286.42-7.15Q288.02-7.15 288.89-7.45 289.77-7.75 291.72-8.7L291.72-8.7Q292.07-8.7 292.34-8.3 292.62-7.9 293.12-6.65L293.12-6.65Q293.27-6.4 293.49-5.7 293.72-5 293.92-4.65L293.92-4.65Q294.87-2.25 294.82-2.15L294.82-2.15Q294.72-1.95 294.27-1.6L294.27-1.6Q293.22-0.55 290.89 0.28 288.57 1.1 285.77 1.1L285.77 1.1ZM281.17-14.9L286.97-15.4Q286.57-21.1 284.22-21.1L284.22-21.1Q282.82-21.1 282.07-19.48 281.32-17.85 281.17-14.9L281.17-14.9Z" opacity="1" transform="matrix(1,0,0,1,0,0)" fill="#ff5db2" class="slogan-text-1" data-fill-palette-color="secondary" id="text-1"></path></svg></g></svg></g></svg></g></svg></g><g></g></svg></g><defs></defs></svg><rect width="243.07836003817093" height="280" fill="none" stroke="none" visibility="hidden"></rect></g></svg></g></svg>